<svg xmlns="http://www.w3.org/2000/svg" xmlns:xlink="http://www.w3.org/1999/xlink" width="434" zoomAndPan="magnify" viewBox="0 0 325.5 144.749998" height="193" preserveAspectRatio="xMidYMid meet" version="1.0"><defs><g/><clipPath id="d8a37fe32c"><rect x="0" width="120" y="0" height="105"/></clipPath></defs><g transform="matrix(1, 0, 0, 1, 167, 13)"><g clip-path="url(#d8a37fe32c)"><g fill="#1b1b1b" fill-opacity="1"><g transform="translate(0.81992, 84.520604)"><g><path d="M 18.859375 -28.828125 L 18.859375 -13.84375 C 18.859375 -12.195312 18.941406 -10.984375 19.109375 -10.203125 C 19.273438 -9.429688 19.742188 -8.804688 20.515625 -8.328125 C 21.296875 -7.859375 22.554688 -7.625 24.296875 -7.625 C 25.191406 -7.625 26.113281 -7.71875 27.0625 -7.90625 L 27.0625 -0.28125 C 26.582031 -0.1875 25.632812 -0.0820312 24.21875 0.03125 C 22.8125 0.15625 21.398438 0.21875 19.984375 0.21875 C 16.316406 0.21875 13.597656 -0.320312 11.828125 -1.40625 C 10.066406 -2.488281 8.972656 -3.804688 8.546875 -5.359375 C 8.117188 -6.921875 7.90625 -8.945312 7.90625 -11.4375 L 7.90625 -28.828125 L 1.90625 -28.828125 L 1.90625 -37.375 L 7.90625 -37.375 L 7.90625 -49.453125 L 18.859375 -49.453125 L 18.859375 -37.375 L 27.0625 -37.375 L 27.0625 -28.828125 Z M 18.859375 -28.828125 "/></g></g></g><g fill="#1b1b1b" fill-opacity="1"><g transform="translate(25.544421, 84.520604)"><g><path d="M 16.734375 0.640625 C 12.117188 0.640625 8.550781 -1.113281 6.03125 -4.625 C 3.519531 -8.132812 2.265625 -12.832031 2.265625 -18.71875 C 2.265625 -24.65625 3.554688 -29.375 6.140625 -32.875 C 8.734375 -36.382812 12.316406 -38.140625 16.890625 -38.140625 C 20.035156 -38.140625 22.457031 -37.445312 24.15625 -36.0625 C 25.851562 -34.675781 27.03125 -33.273438 27.6875 -31.859375 L 28.25 -31.859375 L 28.25 -37.375 L 39.34375 -37.375 L 39.34375 0 L 28.25 0 L 28.25 -6 L 27.6875 -6 C 26.976562 -4.5 25.765625 -3.015625 24.046875 -1.546875 C 22.328125 -0.0859375 19.890625 0.640625 16.734375 0.640625 Z M 20.90625 -8.1875 C 23.40625 -8.1875 25.265625 -9.234375 26.484375 -11.328125 C 27.710938 -13.429688 28.328125 -15.921875 28.328125 -18.796875 C 28.328125 -21.617188 27.710938 -24.078125 26.484375 -26.171875 C 25.265625 -28.265625 23.40625 -29.3125 20.90625 -29.3125 C 18.320312 -29.3125 16.425781 -28.285156 15.21875 -26.234375 C 14.019531 -24.191406 13.421875 -21.734375 13.421875 -18.859375 C 13.421875 -15.941406 14.019531 -13.429688 15.21875 -11.328125 C 16.425781 -9.234375 18.320312 -8.1875 20.90625 -8.1875 Z M 20.90625 -8.1875 "/></g></g></g><g fill="#1b1b1b" fill-opacity="1"><g transform="translate(63.408234, 84.520604)"><g><path d="M 12.78125 -18.65625 L 1.703125 -37.375 L 13.703125 -37.375 L 19.921875 -25.296875 L 20.203125 -25.296875 L 26.5625 -37.375 L 38.5 -37.375 L 27.125 -18.65625 L 38.421875 0 L 26.484375 0 L 20.203125 -12.078125 L 19.921875 -12.078125 L 13.703125 0 L 1.703125 0 Z M 12.78125 -18.65625 "/></g></g></g><g fill="#1b1b1b" fill-opacity="1"><g transform="translate(98.870235, 84.520604)"><g><path d="M 11.875 0.640625 C 10.125 0.640625 8.679688 0.0507812 7.546875 -1.125 C 6.421875 -2.300781 5.859375 -3.738281 5.859375 -5.4375 C 5.859375 -7.132812 6.421875 -8.554688 7.546875 -9.703125 C 8.679688 -10.859375 10.125 -11.4375 11.875 -11.4375 C 13.613281 -11.4375 15.054688 -10.859375 16.203125 -9.703125 C 17.359375 -8.554688 17.9375 -7.132812 17.9375 -5.4375 C 17.9375 -3.738281 17.347656 -2.300781 16.171875 -1.125 C 14.992188 0.0507812 13.5625 0.640625 11.875 0.640625 Z M 11.875 0.640625 "/></g></g></g></g></g><g fill="#1b1b1b" fill-opacity="1"><g transform="translate(37.462108, 95.333493)"><g><path d="M 21.265625 -30 C 23.109375 -30 24.648438 -29.535156 25.890625 -28.609375 C 27.140625 -27.691406 27.765625 -26.515625 27.765625 -25.078125 C 27.765625 -23.671875 27.109375 -22.070312 25.796875 -20.28125 C 24.484375 -18.488281 22.347656 -16.898438 19.390625 -15.515625 C 16.441406 -14.140625 12.691406 -13.390625 8.140625 -13.265625 C 7.878906 -12.390625 7.75 -11.316406 7.75 -10.046875 C 7.75 -7.367188 8.46875 -5.425781 9.90625 -4.21875 C 11.351562 -3.019531 12.953125 -2.421875 14.703125 -2.421875 C 17.628906 -2.421875 20.601562 -3.890625 23.625 -6.828125 L 24.484375 -6.03125 C 19.796875 -1.488281 15.265625 0.78125 10.890625 0.78125 C 9.097656 0.78125 7.535156 0.332031 6.203125 -0.5625 C 4.867188 -1.457031 3.863281 -2.625 3.1875 -4.0625 C 2.507812 -5.507812 2.171875 -7 2.171875 -8.53125 C 2.171875 -11.59375 3.054688 -14.804688 4.828125 -18.171875 C 6.597656 -21.546875 8.957031 -24.359375 11.90625 -26.609375 C 14.863281 -28.867188 17.984375 -30 21.265625 -30 Z M 8.53125 -14.5 C 11.507812 -14.71875 13.914062 -15.222656 15.75 -16.015625 C 17.539062 -16.804688 18.992188 -17.820312 20.109375 -19.0625 C 21.234375 -20.3125 22.035156 -21.535156 22.515625 -22.734375 C 22.992188 -23.941406 23.234375 -24.941406 23.234375 -25.734375 C 23.234375 -26.472656 22.957031 -27.160156 22.40625 -27.796875 C 21.863281 -28.429688 21.09375 -28.75 20.09375 -28.75 C 18.332031 -28.75 16.628906 -27.9375 14.984375 -26.3125 C 13.347656 -24.695312 11.953125 -22.773438 10.796875 -20.546875 C 9.640625 -18.316406 8.882812 -16.300781 8.53125 -14.5 Z M 8.53125 -14.5 "/></g></g></g><g fill="#1b1b1b" fill-opacity="1"><g transform="translate(58.597596, 95.333493)"><g><path d="M 15.359375 -5.78125 C 18.160156 -8.96875 20.390625 -12.179688 22.046875 -15.421875 C 23.710938 -18.660156 24.546875 -21.113281 24.546875 -22.78125 C 24.546875 -23.394531 24.425781 -23.851562 24.1875 -24.15625 C 23.945312 -24.457031 23.566406 -24.765625 23.046875 -25.078125 C 22.515625 -25.378906 22.128906 -25.679688 21.890625 -25.984375 C 21.648438 -26.296875 21.53125 -26.757812 21.53125 -27.375 C 21.53125 -28.113281 21.800781 -28.734375 22.34375 -29.234375 C 22.894531 -29.742188 23.566406 -30 24.359375 -30 C 25.316406 -30 26.125 -29.601562 26.78125 -28.8125 C 27.4375 -28.03125 27.765625 -27.113281 27.765625 -26.0625 C 27.765625 -23.257812 26.304688 -19.460938 23.390625 -14.671875 C 20.484375 -9.878906 16.601562 -4.726562 11.75 0.78125 L 10.5625 0.78125 L 10.640625 -3.875 C 10.640625 -9.738281 10.3125 -15.164062 9.65625 -20.15625 C 9.257812 -23 8.796875 -24.910156 8.265625 -25.890625 C 7.742188 -26.878906 7 -27.375 6.03125 -27.375 C 5.25 -27.375 4.640625 -27.304688 4.203125 -27.171875 L 4.203125 -28.359375 L 12.671875 -30 C 13.722656 -27.0625 14.421875 -23.492188 14.765625 -19.296875 C 15.117188 -15.097656 15.316406 -10.59375 15.359375 -5.78125 Z M 15.359375 -5.78125 "/></g></g></g><g fill="#1b1b1b" fill-opacity="1"><g transform="translate(79.733085, 95.333493)"><g><path d="M 21.140625 -30 C 22.710938 -30 24.195312 -29.582031 25.59375 -28.75 C 27 -27.914062 28.128906 -26.742188 28.984375 -25.234375 C 29.835938 -23.722656 30.265625 -22.007812 30.265625 -20.09375 C 30.265625 -16.238281 29.28125 -12.710938 27.3125 -9.515625 C 25.34375 -6.316406 22.878906 -3.800781 19.921875 -1.96875 C 16.960938 -0.132812 14.148438 0.78125 11.484375 0.78125 C 9.335938 0.78125 7.585938 0.222656 6.234375 -0.890625 C 4.878906 -2.003906 3.894531 -3.347656 3.28125 -4.921875 C 2.664062 -6.492188 2.359375 -7.984375 2.359375 -9.390625 C 2.359375 -12.359375 3.273438 -15.460938 5.109375 -18.703125 C 6.953125 -21.941406 9.328125 -24.632812 12.234375 -26.78125 C 15.148438 -28.925781 18.117188 -30 21.140625 -30 Z M 7.75 -6.890625 C 7.75 -5.140625 8.207031 -3.695312 9.125 -2.5625 C 10.039062 -1.425781 11.222656 -0.859375 12.671875 -0.859375 C 14.023438 -0.859375 15.300781 -1.257812 16.5 -2.0625 C 17.707031 -2.875 18.726562 -3.976562 19.5625 -5.375 C 21.175781 -8.007812 22.5 -10.929688 23.53125 -14.140625 C 24.5625 -17.359375 25.078125 -20.039062 25.078125 -22.1875 C 25.078125 -26.476562 23.457031 -28.625 20.21875 -28.625 C 17.894531 -28.625 15.78125 -27.34375 13.875 -24.78125 C 11.976562 -22.21875 10.484375 -19.195312 9.390625 -15.71875 C 8.296875 -12.238281 7.75 -9.296875 7.75 -6.890625 Z M 7.75 -6.890625 "/></g></g></g><g fill="#1b1b1b" fill-opacity="1"><g transform="translate(106.382506, 95.333493)"><g><path d="M 9.125 -7.359375 C 8.820312 -6.304688 8.59375 -5.460938 8.4375 -4.828125 C 8.28125 -4.191406 8.203125 -3.65625 8.203125 -3.21875 C 8.203125 -2.90625 8.28125 -2.671875 8.4375 -2.515625 C 8.59375 -2.367188 8.734375 -2.296875 8.859375 -2.296875 C 9.390625 -2.296875 10.285156 -2.929688 11.546875 -4.203125 C 12.816406 -5.472656 13.609375 -6.367188 13.921875 -6.890625 L 14.96875 -6.296875 C 13.5625 -4.367188 12.023438 -2.707031 10.359375 -1.3125 C 8.703125 0.0820312 7.148438 0.78125 5.703125 0.78125 C 3.953125 0.78125 3.078125 -0.242188 3.078125 -2.296875 C 3.078125 -3.128906 3.253906 -4.15625 3.609375 -5.375 C 3.960938 -6.601562 4.203125 -7.414062 4.328125 -7.8125 L 13.65625 -40.234375 C 13.914062 -41.242188 14.046875 -42.03125 14.046875 -42.59375 C 14.046875 -43.164062 13.847656 -43.625 13.453125 -43.96875 C 13.054688 -44.320312 12.554688 -44.5 11.953125 -44.5 C 11.117188 -44.5 10.375 -44.4375 9.71875 -44.3125 L 9.71875 -45.546875 L 19.359375 -47.0625 L 20.484375 -47.0625 L 9.984375 -10.3125 C 9.546875 -8.726562 9.257812 -7.742188 9.125 -7.359375 Z M 9.125 -7.359375 "/></g></g></g><g fill="#1b1b1b" fill-opacity="1"><g transform="translate(118.000269, 95.333493)"><g><path d="M 15.359375 -5.78125 C 18.160156 -8.96875 20.390625 -12.179688 22.046875 -15.421875 C 23.710938 -18.660156 24.546875 -21.113281 24.546875 -22.78125 C 24.546875 -23.394531 24.425781 -23.851562 24.1875 -24.15625 C 23.945312 -24.457031 23.566406 -24.765625 23.046875 -25.078125 C 22.515625 -25.378906 22.128906 -25.679688 21.890625 -25.984375 C 21.648438 -26.296875 21.53125 -26.757812 21.53125 -27.375 C 21.53125 -28.113281 21.800781 -28.734375 22.34375 -29.234375 C 22.894531 -29.742188 23.566406 -30 24.359375 -30 C 25.316406 -30 26.125 -29.601562 26.78125 -28.8125 C 27.4375 -28.03125 27.765625 -27.113281 27.765625 -26.0625 C 27.765625 -23.257812 26.304688 -19.460938 23.390625 -14.671875 C 20.484375 -9.878906 16.601562 -4.726562 11.75 0.78125 L 10.5625 0.78125 L 10.640625 -3.875 C 10.640625 -9.738281 10.3125 -15.164062 9.65625 -20.15625 C 9.257812 -23 8.796875 -24.910156 8.265625 -25.890625 C 7.742188 -26.878906 7 -27.375 6.03125 -27.375 C 5.25 -27.375 4.640625 -27.304688 4.203125 -27.171875 L 4.203125 -28.359375 L 12.671875 -30 C 13.722656 -27.0625 14.421875 -23.492188 14.765625 -19.296875 C 15.117188 -15.097656 15.316406 -10.59375 15.359375 -5.78125 Z M 15.359375 -5.78125 "/></g></g></g><g fill="#1b1b1b" fill-opacity="1"><g transform="translate(139.660924, 95.333493)"><g><path d="M 21.265625 -30 C 23.109375 -30 24.648438 -29.535156 25.890625 -28.609375 C 27.140625 -27.691406 27.765625 -26.515625 27.765625 -25.078125 C 27.765625 -23.671875 27.109375 -22.070312 25.796875 -20.28125 C 24.484375 -18.488281 22.347656 -16.898438 19.390625 -15.515625 C 16.441406 -14.140625 12.691406 -13.390625 8.140625 -13.265625 C 7.878906 -12.390625 7.75 -11.316406 7.75 -10.046875 C 7.75 -7.367188 8.46875 -5.425781 9.90625 -4.21875 C 11.351562 -3.019531 12.953125 -2.421875 14.703125 -2.421875 C 17.628906 -2.421875 20.601562 -3.890625 23.625 -6.828125 L 24.484375 -6.03125 C 19.796875 -1.488281 15.265625 0.78125 10.890625 0.78125 C 9.097656 0.78125 7.535156 0.332031 6.203125 -0.5625 C 4.867188 -1.457031 3.863281 -2.625 3.1875 -4.0625 C 2.507812 -5.507812 2.171875 -7 2.171875 -8.53125 C 2.171875 -11.59375 3.054688 -14.804688 4.828125 -18.171875 C 6.597656 -21.546875 8.957031 -24.359375 11.90625 -26.609375 C 14.863281 -28.867188 17.984375 -30 21.265625 -30 Z M 8.53125 -14.5 C 11.507812 -14.71875 13.914062 -15.222656 15.75 -16.015625 C 17.539062 -16.804688 18.992188 -17.820312 20.109375 -19.0625 C 21.234375 -20.3125 22.035156 -21.535156 22.515625 -22.734375 C 22.992188 -23.941406 23.234375 -24.941406 23.234375 -25.734375 C 23.234375 -26.472656 22.957031 -27.160156 22.40625 -27.796875 C 21.863281 -28.429688 21.09375 -28.75 20.09375 -28.75 C 18.332031 -28.75 16.628906 -27.9375 14.984375 -26.3125 C 13.347656 -24.695312 11.953125 -22.773438 10.796875 -20.546875 C 9.640625 -18.316406 8.882812 -16.300781 8.53125 -14.5 Z M 8.53125 -14.5 "/></g></g></g></svg>